# xmcd
#
# Track frame offsets: 
#        150
#        11374
#        21542
#        30424
#        38344
#        52809
#        65110
#        78821
#
# Disc length: 1258 seconds
#
# Revision: 0
# Processed by: cddbd v1.5.2PL0 Copyright (c) Steve Scherf et al.
# Submitted via: ExactAudioCopy v0.99pb3
#
DISCID=5104e808
DTITLE=Hickoids - Waltz-A-Cross-Dress-Texas
DYEAR=1989
DGENRE=Country
TTITLE0=Queen of the Bar-B-Q
TTITLE1=Pennsylvania Mexican
TTITLE2=There Stands The Glass
TTITLE3=Toothpick Man
TTITLE4=Jumping Bean Bolero
TTITLE5=Brand New Way
TTITLE6=Mr. Punk Rock Voo-Doo Man
TTITLE7=Git Back In The Truck
EXTD=
EXTT0=
EXTT1=
EXTT2=
EXTT3=
EXTT4=
EXTT5=
EXTT6=
EXTT7=
PLAYORDER=
